PathFileType	4	(X/Y/Z)	/tmp/tmpjnq7zxqp/Me/MarkerData/fast walking03_segment_0.trc
DataRate	CameraRate	NumFrames	NumMarkers	Units	OrigDataRate	OrigDataStartFrame	OrigNumFrames
100.094	100.094	7	38	m	100.094	0	1067
Frame#	Time	C7			CLAV			LANK			LASI			LBHD			LELB			LFHD			LFIN			LFRM			LHEE			LKNE			LPSI			LSHO			LTHI			LTIB			LTOE			LUPA			LWRA			LWRB			RANK			RBAK			RBHD			RELB			RFHD			RFIN			RFRM			RHEE			RKNE			RPSI			RSHO			RTHI			RTIB			RTOE			RUPA			RWRA			RWRB			STRN			T10		
		X1	Y1	Z1	X2	Y2	Z2	X3	Y3	Z3	X4	Y4	Z4	X5	Y5	Z5	X6	Y6	Z6	X7	Y7	Z7	X8	Y8	Z8	X9	Y9	Z9	X10	Y10	Z10	X11	Y11	Z11	X12	Y12	Z12	X13	Y13	Z13	X14	Y14	Z14	X15	Y15	Z15	X16	Y16	Z16	X17	Y17	Z17	X18	Y18	Z18	X19	Y19	Z19	X20	Y20	Z20	X21	Y21	Z21	X22	Y22	Z22	X23	Y23	Z23	X24	Y24	Z24	X25	Y25	Z25	X26	Y26	Z26	X27	Y27	Z27	X28	Y28	Z28	X29	Y29	Z29	X30	Y30	Z30	X31	Y31	Z31	X32	Y32	Z32	X33	Y33	Z33	X34	Y34	Z34	X35	Y35	Z35	X36	Y36	Z36	X37	Y37	Z37	X38	Y38	Z38

1	0	-0.195669	1.4131	-0.0446556	-0.355559	1.33493	-0.00308716	-0.614616	0.104996	0.127838	-0.284493	0.947046	0.13876	-0.249669	1.55882	0.0473058	-0.109828	1.07536	0.255392	-0.365577	1.60347	0.0921707	0.026201	0.772037	0.298696	-0.0236747	0.949373	0.262272	-0.5674	0.0428944	0.0750504	-0.492213	0.484861	0.131935	-0.14707	0.953073	0.012773	-0.220913	1.38915	0.140365	-0.408018	0.646431	0.165916	-0.547626	0.247624	0.151909	-0.769932	0.164755	0.0631652	-0.181285	1.23969	0.237031	-0.0403894	0.834365	0.246048	0.0105337	0.869513	0.285314	0.0749238	0.121734	-0.119325	-0.173613	1.27595	-0.170977	-0.31593	1.56227	-0.0866669	-0.431332	1.07957	-0.27895	-0.418318	1.59853	-0.0252183	-0.712756	0.919598	-0.167046	-0.492617	1.01652	-0.26086	0.16101	0.0984675	-0.0618359	-0.14767	0.468299	-0.151182	-0.151865	0.954928	-0.0497641	-0.305369	1.39668	-0.194512	-0.288341	0.76944	-0.198529	-0.0542141	0.374167	-0.170403	-0.0658933	0.058586	-0.0563824	-0.398498	1.17076	-0.264805	-0.61446	0.972375	-0.145093	-0.618993	0.922892	-0.199214	-0.388353	1.17571	0.00832197	-0.135826	1.18222	-0.0525096
2	0.00999063	-0.19708	1.41178	-0.0430456	-0.356811	1.33386	-0.0010485	-0.60797	0.100909	0.12695	-0.286858	0.946544	0.140039	-0.250623	1.55767	0.0493377	-0.110403	1.07398	0.256903	-0.366575	1.60238	0.0942081	0.0247355	0.770382	0.299238	-0.0245151	0.947705	0.263638	-0.557166	0.0440658	0.0743889	-0.497702	0.484125	0.132087	-0.149251	0.951552	0.0141018	-0.221605	1.38765	0.141982	-0.414489	0.648259	0.167029	-0.546684	0.245045	0.151157	-0.76661	0.15305	0.0609509	-0.18157	1.23833	0.239008	-0.0417201	0.832716	0.247595	0.0096391	0.867809	0.28637	0.0841271	0.125485	-0.120601	-0.175635	1.27477	-0.169518	-0.3169	1.56104	-0.0846443	-0.431197	1.0778	-0.276917	-0.41926	1.5974	-0.0232427	-0.711456	0.914841	-0.166613	-0.491929	1.01405	-0.259125	0.170842	0.104506	-0.0630183	-0.147171	0.46736	-0.151497	-0.154024	0.953185	-0.0483133	-0.307309	1.3957	-0.192531	-0.289339	0.767906	-0.197484	-0.0516416	0.374954	-0.17064	-0.052769	0.0583644	-0.0562502	-0.399094	1.16915	-0.262714	-0.613804	0.968565	-0.143957	-0.617565	0.919015	-0.198181	-0.389678	1.17466	0.010425	-0.137963	1.18097	-0.0509272
3	0.0199813	-0.198474	1.41057	-0.0414122	-0.358186	1.33307	0.00102927	-0.601234	0.0979608	0.126365	-0.28984	0.946369	0.141405	-0.251605	1.55664	0.0514457	-0.111435	1.07255	0.258387	-0.367565	1.60148	0.0963031	0.0219823	0.768094	0.300166	-0.0260653	0.945795	0.264874	-0.547867	0.045551	0.073568	-0.502525	0.483184	0.131896	-0.151722	0.950388	0.015771	-0.222343	1.38627	0.143572	-0.420816	0.649846	0.168042	-0.545023	0.242336	0.150134	-0.762903	0.141362	0.0588448	-0.182451	1.23701	0.240261	-0.0440906	0.830913	0.249023	0.00783191	0.865648	0.287315	0.092664	0.129713	-0.121916	-0.177864	1.2738	-0.168101	-0.317862	1.55998	-0.0825919	-0.430749	1.07607	-0.274886	-0.420207	1.59648	-0.0212226	-0.70942	0.909322	-0.166402	-0.490785	1.0115	-0.25746	0.180388	0.111601	-0.0638106	-0.147315	0.466395	-0.151609	-0.156516	0.951828	-0.0465979	-0.309387	1.39494	-0.19051	-0.290563	0.766547	-0.196396	-0.0496088	0.375828	-0.170767	-0.0395962	0.0579801	-0.0563232	-0.399533	1.16768	-0.260617	-0.612631	0.96421	-0.142954	-0.615404	0.914734	-0.197196	-0.391243	1.17387	0.0125214	-0.140345	1.17978	-0.0494011
4	0.0299719	-0.1998	1.40949	-0.0397492	-0.359719	1.33253	0.00311533	-0.594887	0.0960796	0.12606	-0.29342	0.946513	0.142835	-0.252614	1.55581	0.0535646	-0.112923	1.07109	0.259851	-0.36854	1.60079	0.0984205	0.0180083	0.76502	0.30194	-0.0282925	0.943678	0.265987	-0.539289	0.0474759	0.0728901	-0.506554	0.482341	0.131651	-0.154478	0.949521	0.0178441	-0.22313	1.38503	0.145164	-0.426792	0.650946	0.168638	-0.543277	0.23991	0.149155	-0.7587	0.130026	0.0569011	-0.183659	1.2358	0.241569	-0.0475586	0.828941	0.250392	0.00507184	0.862969	0.288209	0.100382	0.134334	-0.123266	-0.17994	1.27317	-0.166744	-0.318814	1.55915	-0.08051	-0.430023	1.0744	-0.272851	-0.421142	1.5958	-0.0191742	-0.706656	0.90305	-0.16642	-0.489212	1.00888	-0.25584	0.189088	0.119396	-0.0643914	-0.148185	0.46543	-0.151605	-0.159293	0.950876	-0.0445735	-0.311417	1.39435	-0.188392	-0.292012	0.76539	-0.195239	-0.0482447	0.376814	-0.17077	-0.0264679	0.0574747	-0.0566054	-0.399872	1.1664	-0.258494	-0.610915	0.959327	-0.142107	-0.612563	0.909987	-0.196426	-0.393159	1.17337	0.0145616	-0.14289	1.17864	-0.0479273
5	0.0399625	-0.201035	1.40851	-0.0380496	-0.361417	1.33225	0.00521676	-0.588698	0.0942537	0.125563	-0.297572	0.946977	0.14431	-0.253727	1.55523	0.0556314	-0.114868	1.06959	0.261263	-0.369536	1.60033	0.100564	0.0129148	0.761934	0.303499	-0.0312131	0.941349	0.266974	-0.530762	0.0496557	0.0726634	-0.50977	0.481901	0.131889	-0.157583	0.948977	0.020362	-0.223997	1.3839	0.146797	-0.432086	0.651361	0.169052	-0.542149	0.238065	0.148484	-0.753846	0.119034	0.0552713	-0.18485	1.23475	0.24338	-0.05196	0.826728	0.251649	0.00153813	0.860085	0.28887	0.107333	0.138953	-0.124182	-0.182119	1.2727	-0.165322	-0.319726	1.55863	-0.0783849	-0.429032	1.0728	-0.270821	-0.42205	1.5954	-0.0171123	-0.703132	0.896061	-0.166672	-0.487215	1.00625	-0.254285	0.196683	0.12771	-0.0647564	-0.149982	0.464433	-0.151676	-0.162329	0.950296	-0.0421989	-0.313351	1.39397	-0.186256	-0.293778	0.764439	-0.193964	-0.0477055	0.377878	-0.170685	-0.0131846	0.0567172	-0.0570918	-0.400108	1.16529	-0.256328	-0.608617	0.953932	-0.141465	-0.609027	0.904833	-0.19595	-0.395542	1.17323	0.0165444	-0.145685	1.17747	-0.0464678
6	0.0499531	-0.202237	1.40769	-0.0362742	-0.36326	1.33224	0.00730578	-0.582279	0.092241	0.12524	-0.3022	0.947762	0.145769	-0.254951	1.55489	0.0576759	-0.117249	1.06806	0.262556	-0.370529	1.60015	0.102694	0.00677084	0.758896	0.304766	-0.03485	0.938803	0.267829	-0.521657	0.0520133	0.0729361	-0.512552	0.48189	0.13274	-0.161324	0.948684	0.0232888	-0.224969	1.38292	0.148494	-0.436327	0.651113	0.16932	-0.541442	0.236736	0.14832	-0.748212	0.108503	0.0541394	-0.186376	1.23375	0.245017	-0.0569595	0.824323	0.252624	-0.00286605	0.857079	0.289371	0.113373	0.143698	-0.12482	-0.184351	1.27227	-0.163751	-0.320569	1.55847	-0.0762475	-0.427742	1.07132	-0.268792	-0.422902	1.59532	-0.0150532	-0.698836	0.888415	-0.167154	-0.48477	1.0036	-0.252806	0.203077	0.13671	-0.0648519	-0.152884	0.463319	-0.151832	-0.165609	0.950031	-0.0394812	-0.315035	1.39383	-0.184147	-0.295902	0.763708	-0.192528	-0.0481563	0.378965	-0.170538	-4.43171e-05	0.0560804	-0.0574073	-0.400181	1.16436	-0.254147	-0.605752	0.948129	-0.140983	-0.604779	0.899333	-0.195748	-0.39833	1.1735	0.0185066	-0.148971	1.17623	-0.0449687
7	0.0599438	-0.203502	1.40711	-0.0344066	-0.365177	1.33255	0.00930537	-0.575026	0.0904963	0.125187	-0.307121	0.948771	0.147148	-0.255752	1.55489	0.0599812	-0.120075	1.0665	0.263697	-0.371427	1.60026	0.104675	-0.000440254	0.755768	0.305963	-0.0391989	0.936102	0.268553	-0.511863	0.0542901	0.0734429	-0.515627	0.482412	0.133826	-0.1657	0.948666	0.0264749	-0.226095	1.38213	0.150254	-0.439469	0.650651	0.169705	-0.540401	0.235885	0.148698	-0.741678	0.0987808	0.0537396	-0.188333	1.2328	0.246386	-0.0630676	0.821924	0.253641	-0.00814131	0.853893	0.289735	0.118332	0.148869	-0.125429	-0.18642	1.27189	-0.162022	-0.321316	1.55862	-0.0741178	-0.426112	1.06999	-0.266726	-0.42368	1.59554	-0.013058	-0.69373	0.88017	-0.167899	-0.481882	1.00098	-0.251406	0.207985	0.146414	-0.0646809	-0.15708	0.461978	-0.152106	-0.169041	0.949998	-0.0364934	-0.316481	1.39394	-0.18217	-0.298457	0.763187	-0.190907	-0.0497304	0.38003	-0.17038	0.0126665	0.0555918	-0.0575424	-0.400072	1.16363	-0.252014	-0.602297	0.942034	-0.140575	-0.599833	0.893518	-0.195848	-0.401375	1.17418	0.0204765	-0.152591	1.175	-0.0433948
